<?xml version="1.0" encoding="UTF-8" standalone="no"?><!DOCTYPE svg PUBLIC "-//W3C//DTD SVG 1.1//EN" "http://www.w3.org/Graphics/SVG/1.1/DTD/svg11.dtd"><!-- Generated by graphviz version 2.40.1 (20161225.0304)
 --><!-- Title: %0 Pages: 1 --><svg xmlns="http://www.w3.org/2000/svg" xmlns:xlink="http://www.w3.org/1999/xlink" width="1201pt" height="476pt" viewBox="0.00 0.00 1200.92 476.00">
<g id="graph0" class="graph" transform="scale(1 1) rotate(0) translate(4 472)">
<title>%0</title>
<polygon fill="#ffffff" stroke="transparent" points="-4,4 -4,-472 1196.9191,-472 1196.9191,4 -4,4"/>
<!-- [root] aws_default_vpc.default (expand) -->
<g id="node1" class="node">
<title>[root] aws_default_vpc.default (expand)</title>
<polygon fill="none" stroke="#000000" points="782.2833,-108 628.8381,-108 628.8381,-72 782.2833,-72 782.2833,-108"/>
<text text-anchor="middle" x="705.5607" y="-85.8" font-family="Times,serif" font-size="14.00" fill="#000000">aws_default_vpc.default</text>
</g>
<!-- [root] provider[&quot;registry.terraform.io/hashicorp/aws&quot;] -->
<g id="node8" class="node">
<title>[root] provider["registry.terraform.io/hashicorp/aws"]</title>
<polygon fill="none" stroke="#000000" points="705.5607,-36 430.5702,-18 705.5607,0 980.5512,-18 705.5607,-36"/>
<text text-anchor="middle" x="705.5607" y="-13.8" font-family="Times,serif" font-size="14.00" fill="#000000">provider["registry.terraform.io/hashicorp/aws"]</text>
</g>
<!-- [root] aws_default_vpc.default (expand)&#45;&gt;[root] provider[&quot;registry.terraform.io/hashicorp/aws&quot;] -->
<g id="edge1" class="edge">
<title>[root] aws_default_vpc.default (expand)-&gt;[root] provider["registry.terraform.io/hashicorp/aws"]</title>
<path fill="none" stroke="#000000" d="M705.5607,-71.8314C705.5607,-64.131 705.5607,-54.9743 705.5607,-46.4166"/>
<polygon fill="#000000" stroke="#000000" points="709.0608,-46.4132 705.5607,-36.4133 702.0608,-46.4133 709.0608,-46.4132"/>
</g>
<!-- [root] aws_instance.http_server (expand) -->
<g id="node2" class="node">
<title>[root] aws_instance.http_server (expand)</title>
<polygon fill="none" stroke="#000000" points="567.1723,-252 409.9491,-252 409.9491,-216 567.1723,-216 567.1723,-252"/>
<text text-anchor="middle" x="488.5607" y="-229.8" font-family="Times,serif" font-size="14.00" fill="#000000">aws_instance.http_server</text>
</g>
<!-- [root] aws_security_group.http_server_sg (expand) -->
<g id="node3" class="node">
<title>[root] aws_security_group.http_server_sg (expand)</title>
<polygon fill="none" stroke="#000000" points="662.7238,-180 448.3976,-180 448.3976,-144 662.7238,-144 662.7238,-180"/>
<text text-anchor="middle" x="555.5607" y="-157.8" font-family="Times,serif" font-size="14.00" fill="#000000">aws_security_group.http_server_sg</text>
</g>
<!-- [root] aws_instance.http_server (expand)&#45;&gt;[root] aws_security_group.http_server_sg (expand) -->
<g id="edge2" class="edge">
<title>[root] aws_instance.http_server (expand)-&gt;[root] aws_security_group.http_server_sg (expand)</title>
<path fill="none" stroke="#000000" d="M505.4676,-215.8314C513.342,-207.3694 522.8527,-197.1489 531.462,-187.8971"/>
<polygon fill="#000000" stroke="#000000" points="534.176,-190.1183 538.4261,-180.4133 529.0515,-185.3497 534.176,-190.1183"/>
</g>
<!-- [root] data.aws_ami.aws_linux_2_latest (expand) -->
<g id="node4" class="node">
<title>[root] data.aws_ami.aws_linux_2_latest (expand)</title>
<polygon fill="none" stroke="#000000" points="566.7348,-108 362.3866,-108 362.3866,-72 566.7348,-72 566.7348,-108"/>
<text text-anchor="middle" x="464.5607" y="-85.8" font-family="Times,serif" font-size="14.00" fill="#000000">data.aws_ami.aws_linux_2_latest</text>
</g>
<!-- [root] aws_instance.http_server (expand)&#45;&gt;[root] data.aws_ami.aws_linux_2_latest (expand) -->
<g id="edge3" class="edge">
<title>[root] aws_instance.http_server (expand)-&gt;[root] data.aws_ami.aws_linux_2_latest (expand)</title>
<path fill="none" stroke="#000000" d="M465.8857,-215.9909C455.7719,-206.4972 444.9409,-193.9355 439.5607,-180 431.6028,-159.3877 439.1973,-135.2224 448.0437,-117.1248"/>
<polygon fill="#000000" stroke="#000000" points="451.1465,-118.7441 452.7081,-108.265 444.9525,-115.4831 451.1465,-118.7441"/>
</g>
<!-- [root] data.aws_subnet_ids.default_subnets (expand) -->
<g id="node6" class="node">
<title>[root] data.aws_subnet_ids.default_subnets (expand)</title>
<polygon fill="none" stroke="#000000" points="903.8968,-180 681.2246,-180 681.2246,-144 903.8968,-144 903.8968,-180"/>
<text text-anchor="middle" x="792.5607" y="-157.8" font-family="Times,serif" font-size="14.00" fill="#000000">data.aws_subnet_ids.default_subnets</text>
</g>
<!-- [root] aws_instance.http_server (expand)&#45;&gt;[root] data.aws_subnet_ids.default_subnets (expand) -->
<g id="edge4" class="edge">
<title>[root] aws_instance.http_server (expand)-&gt;[root] data.aws_subnet_ids.default_subnets (expand)</title>
<path fill="none" stroke="#000000" d="M564.8803,-215.9243C607.9662,-205.7198 661.9441,-192.9355 706.5277,-182.3762"/>
<polygon fill="#000000" stroke="#000000" points="707.5492,-185.7312 716.4734,-180.0207 705.9359,-178.9196 707.5492,-185.7312"/>
</g>
<!-- [root] var.aws_key_pair -->
<g id="node9" class="node">
<title>[root] var.aws_key_pair</title>
<polygon fill="none" stroke="#000000" points="109.1822,-180 -.0608,-180 -.0608,-144 115.1822,-144 115.1822,-174 109.1822,-180"/>
<polyline fill="none" stroke="#000000" points="109.1822,-180 109.1822,-174 "/>
<polyline fill="none" stroke="#000000" points="115.1822,-174 109.1822,-174 "/>
<text text-anchor="middle" x="57.5607" y="-157.8" font-family="Times,serif" font-size="14.00" fill="#000000">var.aws_key_pair</text>
</g>
<!-- [root] aws_instance.http_server (expand)&#45;&gt;[root] var.aws_key_pair -->
<g id="edge6" class="edge">
<title>[root] aws_instance.http_server (expand)-&gt;[root] var.aws_key_pair</title>
<path fill="none" stroke="#000000" d="M409.7603,-225.1002C337.8301,-216.3469 228.4614,-201.4623 125.3695,-180.2686"/>
<polygon fill="#000000" stroke="#000000" points="125.9171,-176.8077 115.4139,-178.1979 124.4916,-183.661 125.9171,-176.8077"/>
</g>
<!-- [root] provisioner.remote&#45;exec -->
<g id="node10" class="node">
<title>[root] provisioner.remote-exec</title>
<ellipse fill="none" stroke="#000000" cx="262.5607" cy="-162" rx="129.595" ry="18"/>
<text text-anchor="middle" x="262.5607" y="-157.8" font-family="Times,serif" font-size="14.00" fill="#000000">[root] provisioner.remote-exec</text>
</g>
<!-- [root] aws_instance.http_server (expand)&#45;&gt;[root] provisioner.remote&#45;exec -->
<g id="edge5" class="edge">
<title>[root] aws_instance.http_server (expand)-&gt;[root] provisioner.remote-exec</title>
<path fill="none" stroke="#000000" d="M431.8231,-215.9243C399.0965,-205.4981 357.917,-192.379 324.37,-181.6914"/>
<polygon fill="#000000" stroke="#000000" points="325.2646,-178.3032 314.674,-178.6025 323.1397,-184.9729 325.2646,-178.3032"/>
</g>
<!-- [root] aws_security_group.http_server_sg (expand)&#45;&gt;[root] aws_default_vpc.default (expand) -->
<g id="edge7" class="edge">
<title>[root] aws_security_group.http_server_sg (expand)-&gt;[root] aws_default_vpc.default (expand)</title>
<path fill="none" stroke="#000000" d="M593.412,-143.8314C613.2953,-134.2874 637.8389,-122.5065 658.8912,-112.4013"/>
<polygon fill="#000000" stroke="#000000" points="660.4809,-115.5207 667.9816,-108.038 657.4517,-109.21 660.4809,-115.5207"/>
</g>
<!-- [root] data.aws_ami.aws_linux_2_latest (expand)&#45;&gt;[root] provider[&quot;registry.terraform.io/hashicorp/aws&quot;] -->
<g id="edge8" class="edge">
<title>[root] data.aws_ami.aws_linux_2_latest (expand)-&gt;[root] provider["registry.terraform.io/hashicorp/aws"]</title>
<path fill="none" stroke="#000000" d="M525.0641,-71.9243C562.1823,-60.8351 609.4974,-46.6994 646.3712,-35.6832"/>
<polygon fill="#000000" stroke="#000000" points="647.412,-39.0252 655.9917,-32.809 645.4082,-32.3181 647.412,-39.0252"/>
</g>
<!-- [root] data.aws_ami_ids.aws_linux_2_latest_ids (expand) -->
<g id="node5" class="node">
<title>[root] data.aws_ami_ids.aws_linux_2_latest_ids (expand)</title>
<polygon fill="none" stroke="#000000" points="917.9051,-324 667.2163,-324 667.2163,-288 917.9051,-288 917.9051,-324"/>
<text text-anchor="middle" x="792.5607" y="-301.8" font-family="Times,serif" font-size="14.00" fill="#000000">data.aws_ami_ids.aws_linux_2_latest_ids</text>
</g>
<!-- [root] data.aws_ami_ids.aws_linux_2_latest_ids (expand)&#45;&gt;[root] provider[&quot;registry.terraform.io/hashicorp/aws&quot;] -->
<g id="edge9" class="edge">
<title>[root] data.aws_ami_ids.aws_linux_2_latest_ids (expand)-&gt;[root] provider["registry.terraform.io/hashicorp/aws"]</title>
<path fill="none" stroke="#000000" d="M823.5539,-287.8521C868.7275,-258.9484 944.0267,-199.9901 912.5607,-144 881.4496,-88.6414 815.0657,-54.7605 765.8178,-36.275"/>
<polygon fill="#000000" stroke="#000000" points="766.8063,-32.9103 756.2122,-32.7814 764.4136,-39.4887 766.8063,-32.9103"/>
</g>
<!-- [root] data.aws_subnet_ids.default_subnets (expand)&#45;&gt;[root] aws_default_vpc.default (expand) -->
<g id="edge10" class="edge">
<title>[root] data.aws_subnet_ids.default_subnets (expand)-&gt;[root] aws_default_vpc.default (expand)</title>
<path fill="none" stroke="#000000" d="M770.6069,-143.8314C759.8912,-134.9632 746.8418,-124.1637 735.2517,-114.5718"/>
<polygon fill="#000000" stroke="#000000" points="737.4429,-111.8422 727.5074,-108.1628 732.9799,-117.2349 737.4429,-111.8422"/>
</g>
<!-- [root] output.http_server_public_dns -->
<g id="node7" class="node">
<title>[root] output.http_server_public_dns</title>
<polygon fill="none" stroke="#000000" points="575.7587,-324 395.3627,-324 395.3627,-288 581.7587,-288 581.7587,-318 575.7587,-324"/>
<polyline fill="none" stroke="#000000" points="575.7587,-324 575.7587,-318 "/>
<polyline fill="none" stroke="#000000" points="581.7587,-318 575.7587,-318 "/>
<text text-anchor="middle" x="488.5607" y="-301.8" font-family="Times,serif" font-size="14.00" fill="#000000">output.http_server_public_dns</text>
</g>
<!-- [root] output.http_server_public_dns&#45;&gt;[root] aws_instance.http_server (expand) -->
<g id="edge13" class="edge">
<title>[root] output.http_server_public_dns-&gt;[root] aws_instance.http_server (expand)</title>
<path fill="none" stroke="#000000" d="M488.5607,-287.8314C488.5607,-280.131 488.5607,-270.9743 488.5607,-262.4166"/>
<polygon fill="#000000" stroke="#000000" points="492.0608,-262.4132 488.5607,-252.4133 485.0608,-262.4133 492.0608,-262.4132"/>
</g>
<!-- [root] meta.count&#45;boundary (EachMode fixup) -->
<g id="node11" class="node">
<title>[root] meta.count-boundary (EachMode fixup)</title>
<ellipse fill="none" stroke="#000000" cx="488.5607" cy="-378" rx="191.4666" ry="18"/>
<text text-anchor="middle" x="488.5607" y="-373.8" font-family="Times,serif" font-size="14.00" fill="#000000">[root] meta.count-boundary (EachMode fixup)</text>
</g>
<!-- [root] meta.count&#45;boundary (EachMode fixup)&#45;&gt;[root] data.aws_ami_ids.aws_linux_2_latest_ids (expand) -->
<g id="edge11" class="edge">
<title>[root] meta.count-boundary (EachMode fixup)-&gt;[root] data.aws_ami_ids.aws_linux_2_latest_ids (expand)</title>
<path fill="none" stroke="#000000" d="M559.4515,-361.2101C603.4312,-350.7938 660.2227,-337.3432 706.7391,-326.3262"/>
<polygon fill="#000000" stroke="#000000" points="707.5768,-329.7247 716.5009,-324.0142 705.9635,-322.9131 707.5768,-329.7247"/>
</g>
<!-- [root] meta.count&#45;boundary (EachMode fixup)&#45;&gt;[root] output.http_server_public_dns -->
<g id="edge12" class="edge">
<title>[root] meta.count-boundary (EachMode fixup)-&gt;[root] output.http_server_public_dns</title>
<path fill="none" stroke="#000000" d="M488.5607,-359.8314C488.5607,-352.131 488.5607,-342.9743 488.5607,-334.4166"/>
<polygon fill="#000000" stroke="#000000" points="492.0608,-334.4132 488.5607,-324.4133 485.0608,-334.4133 492.0608,-334.4132"/>
</g>
<!-- [root] provider[&quot;registry.terraform.io/hashicorp/aws&quot;] (close) -->
<g id="node12" class="node">
<title>[root] provider["registry.terraform.io/hashicorp/aws"] (close)</title>
<ellipse fill="none" stroke="#000000" cx="945.5607" cy="-378" rx="247.2168" ry="18"/>
<text text-anchor="middle" x="945.5607" y="-373.8" font-family="Times,serif" font-size="14.00" fill="#000000">[root] provider["registry.terraform.io/hashicorp/aws"] (close)</text>
</g>
<!-- [root] provider[&quot;registry.terraform.io/hashicorp/aws&quot;] (close)&#45;&gt;[root] aws_instance.http_server (expand) -->
<g id="edge14" class="edge">
<title>[root] provider["registry.terraform.io/hashicorp/aws"] (close)-&gt;[root] aws_instance.http_server (expand)</title>
<path fill="none" stroke="#000000" d="M947.3747,-359.8389C948.3304,-339.2336 946.3238,-306.1437 926.5607,-288 901.368,-264.8716 698.2597,-247.7375 577.6633,-239.4867"/>
<polygon fill="#000000" stroke="#000000" points="577.5489,-235.9711 567.3355,-238.788 577.0764,-242.9551 577.5489,-235.9711"/>
</g>
<!-- [root] provider[&quot;registry.terraform.io/hashicorp/aws&quot;] (close)&#45;&gt;[root] data.aws_ami_ids.aws_linux_2_latest_ids (expand) -->
<g id="edge15" class="edge">
<title>[root] provider["registry.terraform.io/hashicorp/aws"] (close)-&gt;[root] data.aws_ami_ids.aws_linux_2_latest_ids (expand)</title>
<path fill="none" stroke="#000000" d="M907.7405,-360.2022C887.2989,-350.5827 861.8571,-338.6101 840.088,-328.3658"/>
<polygon fill="#000000" stroke="#000000" points="841.5471,-325.1843 831.0086,-324.0931 838.5665,-331.518 841.5471,-325.1843"/>
</g>
<!-- [root] root -->
<g id="node13" class="node">
<title>[root] root</title>
<ellipse fill="none" stroke="#000000" cx="716.5607" cy="-450" rx="50.9823" ry="18"/>
<text text-anchor="middle" x="716.5607" y="-445.8" font-family="Times,serif" font-size="14.00" fill="#000000">[root] root</text>
</g>
<!-- [root] root&#45;&gt;[root] meta.count&#45;boundary (EachMode fixup) -->
<g id="edge16" class="edge">
<title>[root] root-&gt;[root] meta.count-boundary (EachMode fixup)</title>
<path fill="none" stroke="#000000" d="M678.3986,-437.9488C644.3187,-427.1867 593.6899,-411.1987 553.2864,-398.4397"/>
<polygon fill="#000000" stroke="#000000" points="554.1057,-395.0281 543.5158,-395.3543 551.9977,-401.7032 554.1057,-395.0281"/>
</g>
<!-- [root] root&#45;&gt;[root] provider[&quot;registry.terraform.io/hashicorp/aws&quot;] (close) -->
<g id="edge17" class="edge">
<title>[root] root-&gt;[root] provider["registry.terraform.io/hashicorp/aws"] (close)</title>
<path fill="none" stroke="#000000" d="M754.8902,-437.9488C788.8843,-427.2607 839.2722,-411.4182 879.713,-398.7032"/>
<polygon fill="#000000" stroke="#000000" points="881.0088,-401.9648 889.4986,-395.6265 878.9092,-395.2871 881.0088,-401.9648"/>
</g>
</g>
</svg>